<svg width="800" height="280" xmlns="http://www.w3.org/2000/svg" font-family="Arial, sans-serif"><rect width="100%" height="100%" fill="white"/><text x="400.0" y="30" text-anchor="middle" font-size="20" font-weight="bold" fill="#2c3e50">Write Latency (Lower is Better)</text><rect x="600" y="40" width="15" height="15" fill="#3498db"/><text x="620" y="52" font-size="12" fill="#2c3e50">Memory</text><rect x="700" y="40" width="15" height="15" fill="#e74c3c"/><text x="720" y="52" font-size="12" fill="#2c3e50">Disk</text><text x="190" y="85" text-anchor="end" font-size="14" fill="#2c3e50">InsertNode (Single)</text><rect x="200" y="65" width="0.658475202835502" height="20" fill="#3498db" rx="2"/><text x="205.6584752028355" y="80" font-size="10" fill="#2c3e50">4,348 ns</text><rect x="200" y="90" width="377.2245118757245" height="20" fill="#e74c3c" rx="2"/><text x="582.2245118757245" y="105" font-size="10" fill="#2c3e50">2,490,864 ns</text><line x1="200" y1="120" x2="780" y2="120" stroke="#ecf0f1" stroke-width="1"/><text x="190" y="145" text-anchor="end" font-size="14" fill="#2c3e50">InsertEdge</text><rect x="200" y="125" width="3.125637008123718" height="20" fill="#3498db" rx="2"/><text x="208.1256370081237" y="140" font-size="10" fill="#2c3e50">20,639 ns</text><rect x="200" y="150" width="404.36798647430146" height="20" fill="#e74c3c" rx="2"/><text x="609.3679864743015" y="165" font-size="10" fill="#2c3e50">2,670,096 ns</text><line x1="200" y1="180" x2="780" y2="180" stroke="#ecf0f1" stroke-width="1"/><text x="190" y="205" text-anchor="end" font-size="14" fill="#2c3e50">BatchInsert (100)</text><rect x="200" y="185" width="28.684863884331286" height="20" fill="#3498db" rx="2"/><text x="233.6848638843313" y="200" font-size="10" fill="#2c3e50">189,410 ns</text><rect x="200" y="210" width="500.0" height="20" fill="#e74c3c" rx="2"/><text x="705.0" y="225" font-size="10" fill="#2c3e50">3,301,567 ns</text><line x1="200" y1="240" x2="780" y2="240" stroke="#ecf0f1" stroke-width="1"/><line x1="200" y1="60" x2="200" y2="240" stroke="#2c3e50" stroke-width="1"/></svg>