<svg width="800" height="340" xmlns="http://www.w3.org/2000/svg" font-family="Arial, sans-serif"><rect width="100%" height="100%" fill="white"/><text x="400.0" y="30" text-anchor="middle" font-size="20" font-weight="bold" fill="#2c3e50">Read and Traversal Latency (Lower is Better)</text><rect x="600" y="40" width="15" height="15" fill="#3498db"/><text x="620" y="52" font-size="12" fill="#2c3e50">Memory</text><rect x="700" y="40" width="15" height="15" fill="#e74c3c"/><text x="720" y="52" font-size="12" fill="#2c3e50">Disk</text><text x="190" y="85" text-anchor="end" font-size="14" fill="#2c3e50">GetNode</text><rect x="200" y="65" width="1.8324243165584961" height="20" fill="#3498db" rx="2"/><text x="206.8324243165585" y="80" font-size="10" fill="#2c3e50">764 ns</text><rect x="200" y="90" width="1.9499489127775618" height="20" fill="#e74c3c" rx="2"/><text x="206.94994891277756" y="105" font-size="10" fill="#2c3e50">813 ns</text><line x1="200" y1="120" x2="780" y2="120" stroke="#ecf0f1" stroke-width="1"/><text x="190" y="145" text-anchor="end" font-size="14" fill="#2c3e50">TraverseOut</text><rect x="200" y="125" width="25.764269644596027" height="20" fill="#3498db" rx="2"/><text x="230.76426964459603" y="140" font-size="10" fill="#2c3e50">10,742 ns</text><rect x="200" y="150" width="26.64930180796001" height="20" fill="#e74c3c" rx="2"/><text x="231.64930180796" y="165" font-size="10" fill="#2c3e50">11,111 ns</text><line x1="200" y1="180" x2="780" y2="180" stroke="#ecf0f1" stroke-width="1"/><text x="190" y="205" text-anchor="end" font-size="14" fill="#2c3e50">BFS (2-Hop)</text><rect x="200" y="185" width="43.1866914187857" height="20" fill="#3498db" rx="2"/><text x="248.1866914187857" y="200" font-size="10" fill="#2c3e50">18,006 ns</text><rect x="200" y="210" width="42.61585766572167" height="20" fill="#e74c3c" rx="2"/><text x="247.61585766572168" y="225" font-size="10" fill="#2c3e50">17,768 ns</text><line x1="200" y1="240" x2="780" y2="240" stroke="#ecf0f1" stroke-width="1"/><text x="190" y="265" text-anchor="end" font-size="14" fill="#2c3e50">FindNodes (Scan)</text><rect x="200" y="245" width="496.57259902046843" height="20" fill="#3498db" rx="2"/><text x="701.5725990204685" y="260" font-size="10" fill="#2c3e50">207,038 ns</text><rect x="200" y="270" width="500.0" height="20" fill="#e74c3c" rx="2"/><text x="705.0" y="285" font-size="10" fill="#2c3e50">208,467 ns</text><line x1="200" y1="300" x2="780" y2="300" stroke="#ecf0f1" stroke-width="1"/><line x1="200" y1="60" x2="200" y2="300" stroke="#2c3e50" stroke-width="1"/></svg>